<mxfile host="app.diagrams.net" modified="2020-04-28T12:14:44.084Z" agent="5.0 (Macintosh; Intel Mac OS X 10_15_3) AppleWebKit/537.36 (KHTML, like Gecko) Chrome/80.0.3987.163 Safari/537.36" etag="wstQvvJJOrcMs0fsQHK1" version="13.0.2" type="github">
  <diagram id="Bes2EISmO_NPxUIKqNzr" name="第 1 页">
    <mxGraphModel dx="946" dy="614" grid="0" gridSize="10" guides="1" tooltips="1" connect="1" arrows="1" fold="1" page="1" pageScale="1" pageWidth="1920" pageHeight="2200" math="0" shadow="0">
      <root>
        <mxCell id="0" />
        <mxCell id="1" parent="0" />
        <mxCell id="2uaBxg3ePG4on2EznLNG-2" value="" style="edgeStyle=orthogonalEdgeStyle;rounded=0;orthogonalLoop=1;jettySize=auto;html=1;comic=1;" parent="1" source="90oQQo36-3N7ltcqBHwb-1" target="2uaBxg3ePG4on2EznLNG-1" edge="1">
          <mxGeometry relative="1" as="geometry" />
        </mxCell>
        <mxCell id="2uaBxg3ePG4on2EznLNG-11" value="" style="edgeStyle=orthogonalEdgeStyle;rounded=0;comic=1;orthogonalLoop=1;jettySize=auto;html=1;startArrow=classicThin;startFill=1;endArrow=none;endFill=0;" parent="1" source="90oQQo36-3N7ltcqBHwb-1" edge="1">
          <mxGeometry relative="1" as="geometry">
            <mxPoint x="401" y="380" as="targetPoint" />
          </mxGeometry>
        </mxCell>
        <mxCell id="2uaBxg3ePG4on2EznLNG-12" value="onLoad" style="edgeLabel;html=1;align=center;verticalAlign=middle;resizable=0;points=[];" parent="2uaBxg3ePG4on2EznLNG-11" vertex="1" connectable="0">
          <mxGeometry x="0.25" y="-4" relative="1" as="geometry">
            <mxPoint x="-236" y="-10" as="offset" />
          </mxGeometry>
        </mxCell>
        <mxCell id="90oQQo36-3N7ltcqBHwb-1" value="aliAutoLogin" style="rounded=0;whiteSpace=wrap;html=1;comic=1;" parent="1" vertex="1">
          <mxGeometry x="481" y="363" width="120" height="34" as="geometry" />
        </mxCell>
        <mxCell id="2uaBxg3ePG4on2EznLNG-4" value="" style="edgeStyle=orthogonalEdgeStyle;rounded=0;comic=1;orthogonalLoop=1;jettySize=auto;html=1;" parent="1" source="2uaBxg3ePG4on2EznLNG-1" target="2uaBxg3ePG4on2EznLNG-3" edge="1">
          <mxGeometry relative="1" as="geometry" />
        </mxCell>
        <mxCell id="2uaBxg3ePG4on2EznLNG-1" value="mtop" style="rounded=0;whiteSpace=wrap;html=1;comic=1;" parent="1" vertex="1">
          <mxGeometry x="681" y="363" width="120" height="34" as="geometry" />
        </mxCell>
        <mxCell id="2uaBxg3ePG4on2EznLNG-16" value="" style="edgeStyle=orthogonalEdgeStyle;rounded=0;comic=1;orthogonalLoop=1;jettySize=auto;html=1;startArrow=none;startFill=0;endArrow=classicThin;endFill=1;" parent="1" source="2uaBxg3ePG4on2EznLNG-3" target="2uaBxg3ePG4on2EznLNG-14" edge="1">
          <mxGeometry relative="1" as="geometry" />
        </mxCell>
        <mxCell id="2uaBxg3ePG4on2EznLNG-3" value="h5data/&lt;span style=&quot;font-family: &amp;#34;menlo&amp;#34; , &amp;#34;monaco&amp;#34; , &amp;#34;courier new&amp;#34; , monospace&quot;&gt;redPacketRpc&amp;nbsp;&lt;/span&gt;" style="rounded=0;whiteSpace=wrap;html=1;comic=1;" parent="1" vertex="1">
          <mxGeometry x="985" y="362" width="151" height="36" as="geometry" />
        </mxCell>
        <mxCell id="2uaBxg3ePG4on2EznLNG-7" value="" style="endArrow=none;html=1;comic=1;" parent="1" edge="1">
          <mxGeometry width="50" height="50" relative="1" as="geometry">
            <mxPoint x="741" y="467" as="sourcePoint" />
            <mxPoint x="740.5" y="397" as="targetPoint" />
          </mxGeometry>
        </mxCell>
        <mxCell id="2uaBxg3ePG4on2EznLNG-9" value="" style="endArrow=classicThin;html=1;comic=1;endFill=1;" parent="1" edge="1">
          <mxGeometry width="50" height="50" relative="1" as="geometry">
            <mxPoint x="741" y="467" as="sourcePoint" />
            <mxPoint x="832" y="467" as="targetPoint" />
          </mxGeometry>
        </mxCell>
        <mxCell id="2uaBxg3ePG4on2EznLNG-13" value="refresh main view" style="rounded=0;whiteSpace=wrap;html=1;comic=1;" parent="1" vertex="1">
          <mxGeometry x="833" y="445" width="120" height="34" as="geometry" />
        </mxCell>
        <mxCell id="2uaBxg3ePG4on2EznLNG-14" value="....patch render" style="rounded=0;whiteSpace=wrap;html=1;comic=1;" parent="1" vertex="1">
          <mxGeometry x="1208" y="363" width="120" height="34" as="geometry" />
        </mxCell>
        <mxCell id="2uaBxg3ePG4on2EznLNG-17" value="此时页面已经渲染" style="text;html=1;strokeColor=none;fillColor=none;align=center;verticalAlign=middle;whiteSpace=wrap;rounded=0;" parent="1" vertex="1">
          <mxGeometry x="840" y="423" width="106" height="14" as="geometry" />
        </mxCell>
        <mxCell id="2uaBxg3ePG4on2EznLNG-20" value="" style="edgeStyle=orthogonalEdgeStyle;rounded=0;comic=1;orthogonalLoop=1;jettySize=auto;html=1;startArrow=classicThin;startFill=1;endArrow=none;endFill=0;" parent="1" source="2uaBxg3ePG4on2EznLNG-18" edge="1">
          <mxGeometry relative="1" as="geometry">
            <mxPoint x="142" y="379" as="targetPoint" />
          </mxGeometry>
        </mxCell>
        <mxCell id="2uaBxg3ePG4on2EznLNG-18" value="getKbLocation" style="rounded=0;whiteSpace=wrap;html=1;comic=1;" parent="1" vertex="1">
          <mxGeometry x="281" y="362" width="120" height="34" as="geometry" />
        </mxCell>
        <mxCell id="2uaBxg3ePG4on2EznLNG-21" value="" style="endArrow=none;html=1;comic=1;" parent="1" edge="1">
          <mxGeometry width="50" height="50" relative="1" as="geometry">
            <mxPoint x="236" y="434" as="sourcePoint" />
            <mxPoint x="236" y="380" as="targetPoint" />
          </mxGeometry>
        </mxCell>
        <mxCell id="2uaBxg3ePG4on2EznLNG-22" value="" style="endArrow=classicThin;html=1;comic=1;endFill=1;" parent="1" edge="1">
          <mxGeometry width="50" height="50" relative="1" as="geometry">
            <mxPoint x="236" y="434" as="sourcePoint" />
            <mxPoint x="327" y="434" as="targetPoint" />
          </mxGeometry>
        </mxCell>
        <mxCell id="2uaBxg3ePG4on2EznLNG-23" value="queryCdp" style="rounded=0;whiteSpace=wrap;html=1;comic=1;" parent="1" vertex="1">
          <mxGeometry x="326" y="417" width="120" height="34" as="geometry" />
        </mxCell>
        <mxCell id="2uaBxg3ePG4on2EznLNG-25" value="" style="edgeStyle=orthogonalEdgeStyle;rounded=0;comic=1;orthogonalLoop=1;jettySize=auto;html=1;startArrow=classicThin;startFill=1;endArrow=none;endFill=0;" parent="1" edge="1">
          <mxGeometry relative="1" as="geometry">
            <mxPoint x="415" y="681" as="targetPoint" />
            <mxPoint x="495" y="681" as="sourcePoint" />
          </mxGeometry>
        </mxCell>
        <mxCell id="2uaBxg3ePG4on2EznLNG-26" value="onLoad" style="edgeLabel;html=1;align=center;verticalAlign=middle;resizable=0;points=[];" parent="2uaBxg3ePG4on2EznLNG-25" vertex="1" connectable="0">
          <mxGeometry x="0.25" y="-4" relative="1" as="geometry">
            <mxPoint x="-236" y="-10" as="offset" />
          </mxGeometry>
        </mxCell>
        <mxCell id="2uaBxg3ePG4on2EznLNG-43" value="" style="edgeStyle=orthogonalEdgeStyle;rounded=0;comic=1;orthogonalLoop=1;jettySize=auto;html=1;startArrow=none;startFill=0;endArrow=classicThin;endFill=1;" parent="1" source="2uaBxg3ePG4on2EznLNG-29" edge="1">
          <mxGeometry relative="1" as="geometry">
            <mxPoint x="695" y="679" as="targetPoint" />
          </mxGeometry>
        </mxCell>
        <mxCell id="2uaBxg3ePG4on2EznLNG-29" value="mtop" style="rounded=0;whiteSpace=wrap;html=1;comic=1;" parent="1" vertex="1">
          <mxGeometry x="495" y="662" width="120" height="34" as="geometry" />
        </mxCell>
        <mxCell id="2uaBxg3ePG4on2EznLNG-30" value="" style="edgeStyle=orthogonalEdgeStyle;rounded=0;comic=1;orthogonalLoop=1;jettySize=auto;html=1;startArrow=none;startFill=0;endArrow=classicThin;endFill=1;" parent="1" source="2uaBxg3ePG4on2EznLNG-31" target="2uaBxg3ePG4on2EznLNG-35" edge="1">
          <mxGeometry relative="1" as="geometry" />
        </mxCell>
        <mxCell id="2uaBxg3ePG4on2EznLNG-31" value="h5data/&lt;span style=&quot;font-family: &amp;#34;menlo&amp;#34; , &amp;#34;monaco&amp;#34; , &amp;#34;courier new&amp;#34; , monospace&quot;&gt;redPacketRpc&amp;nbsp;&lt;/span&gt;" style="rounded=0;whiteSpace=wrap;html=1;comic=1;" parent="1" vertex="1">
          <mxGeometry x="542" y="843" width="151" height="36" as="geometry" />
        </mxCell>
        <mxCell id="2uaBxg3ePG4on2EznLNG-35" value="....patch render" style="rounded=0;whiteSpace=wrap;html=1;comic=1;" parent="1" vertex="1">
          <mxGeometry x="377" y="844" width="120" height="34" as="geometry" />
        </mxCell>
        <mxCell id="2uaBxg3ePG4on2EznLNG-37" value="" style="edgeStyle=orthogonalEdgeStyle;rounded=0;comic=1;orthogonalLoop=1;jettySize=auto;html=1;startArrow=classicThin;startFill=1;endArrow=none;endFill=0;" parent="1" source="2uaBxg3ePG4on2EznLNG-38" edge="1">
          <mxGeometry relative="1" as="geometry">
            <mxPoint x="156" y="680" as="targetPoint" />
          </mxGeometry>
        </mxCell>
        <mxCell id="2uaBxg3ePG4on2EznLNG-38" value="getKbLocation" style="rounded=0;whiteSpace=wrap;html=1;comic=1;" parent="1" vertex="1">
          <mxGeometry x="295" y="663" width="120" height="34" as="geometry" />
        </mxCell>
        <mxCell id="2uaBxg3ePG4on2EznLNG-39" value="" style="endArrow=none;html=1;comic=1;" parent="1" edge="1">
          <mxGeometry width="50" height="50" relative="1" as="geometry">
            <mxPoint x="250" y="735" as="sourcePoint" />
            <mxPoint x="250" y="681" as="targetPoint" />
          </mxGeometry>
        </mxCell>
        <mxCell id="2uaBxg3ePG4on2EznLNG-40" value="" style="endArrow=classicThin;html=1;comic=1;endFill=1;" parent="1" edge="1">
          <mxGeometry width="50" height="50" relative="1" as="geometry">
            <mxPoint x="250" y="735" as="sourcePoint" />
            <mxPoint x="341" y="735" as="targetPoint" />
          </mxGeometry>
        </mxCell>
        <mxCell id="2uaBxg3ePG4on2EznLNG-41" value="queryCdp" style="rounded=0;whiteSpace=wrap;html=1;comic=1;" parent="1" vertex="1">
          <mxGeometry x="340" y="718" width="120" height="34" as="geometry" />
        </mxCell>
        <mxCell id="2uaBxg3ePG4on2EznLNG-47" value="" style="edgeStyle=orthogonalEdgeStyle;rounded=0;comic=1;orthogonalLoop=1;jettySize=auto;html=1;startArrow=none;startFill=0;endArrow=classicThin;endFill=1;" parent="1" source="2uaBxg3ePG4on2EznLNG-45" edge="1">
          <mxGeometry relative="1" as="geometry">
            <mxPoint x="854" y="679" as="targetPoint" />
          </mxGeometry>
        </mxCell>
        <mxCell id="2uaBxg3ePG4on2EznLNG-54" value="" style="edgeStyle=orthogonalEdgeStyle;rounded=0;comic=1;orthogonalLoop=1;jettySize=auto;html=1;startArrow=none;startFill=0;endArrow=none;endFill=0;" parent="1" source="2uaBxg3ePG4on2EznLNG-45" edge="1">
          <mxGeometry relative="1" as="geometry">
            <mxPoint x="734" y="799" as="targetPoint" />
          </mxGeometry>
        </mxCell>
        <mxCell id="2uaBxg3ePG4on2EznLNG-55" value="No" style="edgeLabel;html=1;align=center;verticalAlign=middle;resizable=0;points=[];" parent="2uaBxg3ePG4on2EznLNG-54" vertex="1" connectable="0">
          <mxGeometry x="-0.15" y="1" relative="1" as="geometry">
            <mxPoint x="13" y="1" as="offset" />
          </mxGeometry>
        </mxCell>
        <mxCell id="2uaBxg3ePG4on2EznLNG-45" value="未授权错误？" style="rhombus;whiteSpace=wrap;html=1;comic=1;" parent="1" vertex="1">
          <mxGeometry x="694" y="639" width="80" height="80" as="geometry" />
        </mxCell>
        <mxCell id="2uaBxg3ePG4on2EznLNG-48" value="Yes" style="text;html=1;align=center;verticalAlign=middle;resizable=0;points=[];autosize=1;" parent="1" vertex="1">
          <mxGeometry x="789" y="660" width="30" height="18" as="geometry" />
        </mxCell>
        <mxCell id="2uaBxg3ePG4on2EznLNG-51" value="" style="edgeStyle=orthogonalEdgeStyle;rounded=0;comic=1;orthogonalLoop=1;jettySize=auto;html=1;startArrow=none;startFill=0;endArrow=classicThin;endFill=1;entryX=0.5;entryY=0;entryDx=0;entryDy=0;exitX=0.5;exitY=0;exitDx=0;exitDy=0;" parent="1" source="7KFbMOM8nA_-Wt1_a5-_-1" target="2uaBxg3ePG4on2EznLNG-29" edge="1">
          <mxGeometry relative="1" as="geometry">
            <mxPoint x="1055" y="677" as="targetPoint" />
            <Array as="points">
              <mxPoint x="895" y="610" />
              <mxPoint x="555" y="610" />
            </Array>
            <mxPoint x="975" y="677" as="sourcePoint" />
          </mxGeometry>
        </mxCell>
        <mxCell id="2uaBxg3ePG4on2EznLNG-52" value="&lt;span style=&quot;font-size: 11px&quot;&gt;retry&lt;/span&gt;" style="edgeLabel;html=1;align=center;verticalAlign=middle;resizable=0;points=[];" parent="2uaBxg3ePG4on2EznLNG-51" vertex="1" connectable="0">
          <mxGeometry x="0.0706" y="3" relative="1" as="geometry">
            <mxPoint x="49" y="-17" as="offset" />
          </mxGeometry>
        </mxCell>
        <mxCell id="2uaBxg3ePG4on2EznLNG-56" value="" style="endArrow=none;html=1;comic=1;" parent="1" edge="1">
          <mxGeometry width="50" height="50" relative="1" as="geometry">
            <mxPoint x="671" y="799" as="sourcePoint" />
            <mxPoint x="805" y="799" as="targetPoint" />
          </mxGeometry>
        </mxCell>
        <mxCell id="2uaBxg3ePG4on2EznLNG-57" value="" style="endArrow=none;html=1;comic=1;endFill=0;startArrow=classicThin;startFill=1;" parent="1" edge="1">
          <mxGeometry width="50" height="50" relative="1" as="geometry">
            <mxPoint x="671" y="842" as="sourcePoint" />
            <mxPoint x="671" y="798" as="targetPoint" />
          </mxGeometry>
        </mxCell>
        <mxCell id="2uaBxg3ePG4on2EznLNG-58" value="" style="endArrow=none;html=1;comic=1;startArrow=classicThin;startFill=1;" parent="1" edge="1">
          <mxGeometry width="50" height="50" relative="1" as="geometry">
            <mxPoint x="805" y="838" as="sourcePoint" />
            <mxPoint x="804.5" y="798" as="targetPoint" />
          </mxGeometry>
        </mxCell>
        <mxCell id="2uaBxg3ePG4on2EznLNG-61" value="refresh main view" style="rounded=0;whiteSpace=wrap;html=1;comic=1;" parent="1" vertex="1">
          <mxGeometry x="757" y="838" width="120" height="34" as="geometry" />
        </mxCell>
        <mxCell id="7KFbMOM8nA_-Wt1_a5-_-6" value="" style="edgeStyle=orthogonalEdgeStyle;rounded=0;orthogonalLoop=1;jettySize=auto;html=1;comic=1;entryX=0;entryY=0.5;entryDx=0;entryDy=0;" edge="1" parent="1" source="7KFbMOM8nA_-Wt1_a5-_-1" target="7KFbMOM8nA_-Wt1_a5-_-7">
          <mxGeometry relative="1" as="geometry">
            <mxPoint x="1014" y="679" as="targetPoint" />
          </mxGeometry>
        </mxCell>
        <mxCell id="7KFbMOM8nA_-Wt1_a5-_-9" value="异常" style="edgeLabel;html=1;align=center;verticalAlign=middle;resizable=0;points=[];" vertex="1" connectable="0" parent="7KFbMOM8nA_-Wt1_a5-_-6">
          <mxGeometry x="-0.4966" relative="1" as="geometry">
            <mxPoint x="-27" y="-13" as="offset" />
          </mxGeometry>
        </mxCell>
        <mxCell id="7KFbMOM8nA_-Wt1_a5-_-1" value="aliAutoLogin" style="rhombus;whiteSpace=wrap;html=1;comic=1;" vertex="1" parent="1">
          <mxGeometry x="854" y="639" width="80" height="80" as="geometry" />
        </mxCell>
        <mxCell id="7KFbMOM8nA_-Wt1_a5-_-2" value="免登成功" style="text;html=1;align=center;verticalAlign=middle;resizable=0;points=[];autosize=1;" vertex="1" parent="1">
          <mxGeometry x="898" y="616" width="58" height="18" as="geometry" />
        </mxCell>
        <mxCell id="7KFbMOM8nA_-Wt1_a5-_-22" value="" style="edgeStyle=orthogonalEdgeStyle;rounded=0;comic=1;orthogonalLoop=1;jettySize=auto;html=1;entryX=0.25;entryY=0;entryDx=0;entryDy=0;" edge="1" parent="1" source="7KFbMOM8nA_-Wt1_a5-_-7" target="2uaBxg3ePG4on2EznLNG-29">
          <mxGeometry relative="1" as="geometry">
            <mxPoint x="609" y="590" as="targetPoint" />
            <Array as="points">
              <mxPoint x="1208" y="591" />
              <mxPoint x="525" y="591" />
            </Array>
          </mxGeometry>
        </mxCell>
        <mxCell id="7KFbMOM8nA_-Wt1_a5-_-23" value="retry" style="edgeLabel;html=1;align=center;verticalAlign=middle;resizable=0;points=[];" vertex="1" connectable="0" parent="7KFbMOM8nA_-Wt1_a5-_-22">
          <mxGeometry x="-0.2397" y="1" relative="1" as="geometry">
            <mxPoint x="1" y="-15" as="offset" />
          </mxGeometry>
        </mxCell>
        <mxCell id="7KFbMOM8nA_-Wt1_a5-_-7" value="show retry error view" style="rounded=0;whiteSpace=wrap;html=1;comic=1;" vertex="1" parent="1">
          <mxGeometry x="1148" y="663" width="120" height="34" as="geometry" />
        </mxCell>
        <mxCell id="7KFbMOM8nA_-Wt1_a5-_-8" value="" style="shape=curlyBracket;whiteSpace=wrap;html=1;rounded=1;" vertex="1" parent="1">
          <mxGeometry x="978" y="639" width="10" height="67" as="geometry" />
        </mxCell>
        <mxCell id="7KFbMOM8nA_-Wt1_a5-_-10" value="1. 系统异常&lt;br&gt;2. 用户取消&lt;br&gt;3. 未补全淘宝昵称&lt;br&gt;4. 服务端异常 or rpc 异常&lt;br&gt;5. 其他异常....." style="text;html=1;align=left;verticalAlign=middle;resizable=0;points=[];autosize=1;" vertex="1" parent="1">
          <mxGeometry x="988" y="635.5" width="145" height="74" as="geometry" />
        </mxCell>
      </root>
    </mxGraphModel>
  </diagram>
</mxfile>
